PathFileType	4	(X/Y/Z)	TVC_4_Cal_03_0_static_RCNL2025.trc
DataRate	CameraRate	NumFrames	NumMarkers	Units	OrigDataRate	OrigDataStartFrame	OrigNumFrames
100	100	9	27	mm	100	172	228
Frame#	Time	R_Shoulder			L_Shoulder			C7			J_Notch			R_Elbow			L_Elbow			R_Wrist			L_Wrist			R_Asis			L_Asis			R_Psis			L_Psis			Sacral			Thoracic			Sternum			R_Thigh_Lateral			R_Knee_Lateral			R_Shank_Lateral			R_Ankle_Lateral			R_Heel			R_Toe			L_Thigh_Lateral			L_Knee_Lateral			L_Shank_Lateral			L_Ankle_Lateral			L_Heel			L_Toe		
		X1	Y1	Z1	X2	Y2	Z2	X3	Y3	Z3	X4	Y4	Z4	X5	Y5	Z5	X6	Y6	Z6	X7	Y7	Z7	X8	Y8	Z8	X9	Y9	Z9	X10	Y10	Z10	X11	Y11	Z11	X12	Y12	Z12	X13	Y13	Z13	X14	Y14	Z14	X15	Y15	Z15	X16	Y16	Z16	X17	Y17	Z17	X18	Y18	Z18	X19	Y19	Z19	X20	Y20	Z20	X21	Y21	Z21	X22	Y22	Z22	X23	Y23	Z23	X24	Y24	Z24	X25	Y25	Z25	X26	Y26	Z26	X27	Y27	Z27
172	1.71000000	-243.460648	1345.067749	-57.335236	-207.552795	1346.250000	-418.358002	-281.406219	1391.713013	-229.126572	-132.000839	1271.922363	-237.248642	-229.266937	1133.518433	148.172119	-194.992752	1113.540894	-620.231445	-150.031281	955.632263	271.355667	-82.012543	938.914856	-686.954407	-233.586700	882.747681	-43.356300	-245.228897	866.119568	-397.860931	-378.436279	920.735901	-165.970474	-378.548126	915.815430	-257.620636	-378.492203	918.275665	-211.795555	-360.139496	1149.209229	-233.019547	-98.749100	1079.711426	-227.245575	-260.363953	541.509644	-6.310485	-282.851227	423.828094	-47.282238	-302.462738	281.917694	22.176456	-311.852600	60.648499	-60.538910	-356.714142	52.035011	-109.104073	-179.199936	44.254192	-72.765114	-246.232758	517.857910	-419.562927	-262.371674	429.559448	-379.466949	-262.520477	316.461945	-429.430908	-293.996399	60.921143	-363.410858	-341.450745	49.867218	-319.192810	-158.072113	41.996464	-344.048798
173	1.72000000	-243.465225	1345.085083	-57.339264	-207.506836	1346.228882	-418.318268	-281.396881	1391.693115	-229.091888	-132.011993	1271.901611	-237.217560	-229.289169	1133.508667	148.194427	-195.007370	1113.515259	-620.204285	-150.156349	955.660492	271.449936	-82.035519	938.885498	-686.882172	-233.570862	882.742737	-43.351185	-245.243423	866.099060	-397.875458	-378.448700	920.623169	-165.951370	-378.543243	915.782593	-257.598206	-378.495972	918.202881	-211.774788	-360.210144	1149.209717	-232.964066	-98.659714	1079.712891	-227.212082	-260.345612	541.457703	-6.265195	-282.839325	423.822479	-47.302658	-302.435608	281.929047	22.165783	-311.895386	60.651157	-60.514290	-356.720337	52.005623	-109.098114	-179.203827	44.237053	-72.756073	-246.225983	517.853882	-419.563171	-262.369263	429.555786	-379.464783	-262.530060	316.268066	-428.937103	-293.994293	60.862610	-363.437012	-341.409607	49.814461	-319.219513	-158.104935	41.973408	-344.065765
174	1.73000000	-243.489655	1345.041992	-57.316509	-207.491119	1346.211304	-418.389099	-281.341583	1391.639404	-229.130600	-132.035172	1271.815430	-237.287888	-229.421951	1133.529907	148.253525	-195.014465	1113.459717	-620.236267	-150.192818	955.651001	271.488625	-81.762627	938.800201	-686.595581	-233.539963	882.740845	-43.367470	-245.257126	866.070435	-397.863373	-378.365295	920.621277	-165.917648	-378.545654	915.787415	-257.628021	-378.455475	918.204346	-211.772835	-360.102234	1149.198853	-232.950012	-98.740379	1079.723389	-227.267838	-260.420044	541.502991	-6.286126	-282.832397	423.781708	-47.240597	-302.478882	281.921936	22.214247	-311.965454	60.632183	-60.521915	-356.688629	52.021915	-109.099403	-179.195999	44.227509	-72.774681	-246.053482	517.820923	-419.573029	-262.412842	429.531769	-379.472351	-262.668030	316.339935	-428.909271	-294.080414	60.858597	-363.421082	-341.391663	49.754711	-319.241669	-158.062759	41.957924	-344.025818
175	1.74000000	-243.476974	1345.082397	-57.320766	-207.495956	1346.186279	-418.358063	-281.331055	1391.638306	-229.055496	-131.936584	1271.836060	-237.232498	-229.491165	1133.549194	148.333084	-195.069855	1113.470581	-620.230286	-150.288429	955.686340	271.563065	-81.748722	938.757233	-686.580536	-233.476166	882.721497	-43.313507	-245.260925	866.077820	-397.863770	-378.376678	920.585876	-165.892120	-378.488342	915.745667	-257.537811	-378.432510	918.165771	-211.714966	-360.089111	1149.181274	-232.915634	-98.868080	1079.648315	-227.184830	-260.438538	541.433105	-6.257996	-282.761627	423.803650	-47.275528	-302.506409	281.930603	22.241903	-312.000427	60.551697	-60.586121	-356.736023	52.059448	-109.076210	-179.194748	44.227375	-72.776520	-246.205658	517.821350	-419.603546	-262.425232	429.556915	-379.402832	-262.725616	315.971863	-428.788513	-294.032990	60.870461	-363.383362	-341.358917	49.723381	-319.281036	-158.074371	41.942703	-343.998230
176	1.75000000	-243.405502	1345.048218	-57.273701	-207.564102	1346.146851	-418.327362	-281.291718	1391.654907	-229.020294	-131.933838	1271.787354	-237.195450	-229.539719	1133.593872	148.368301	-195.099258	1113.393921	-620.130859	-150.383858	955.734131	271.609360	-81.850769	938.766510	-686.565277	-233.451096	882.725159	-43.291519	-245.257401	866.070374	-397.862091	-378.381897	920.650085	-165.863007	-378.473846	915.744629	-257.539520	-378.427872	918.197357	-211.701263	-360.096924	1149.173706	-232.911209	-99.026604	1079.554077	-227.161835	-260.349182	541.477234	-6.212981	-282.773193	423.781982	-47.236687	-302.479187	281.887115	22.214916	-311.925323	60.620422	-60.548698	-356.748840	52.031696	-109.067421	-179.223663	44.190132	-72.754128	-246.250732	517.818176	-419.576385	-262.399750	429.527466	-379.419006	-262.711731	315.902863	-428.635040	-293.977020	60.839828	-363.426239	-341.393890	49.779507	-319.229034	-158.076279	41.969612	-344.001373
177	1.76000000	-243.400452	1345.093994	-57.245819	-207.501617	1346.130737	-418.352875	-281.287170	1391.664917	-228.973557	-131.948029	1271.757812	-237.198624	-229.527740	1133.561279	148.454315	-195.140900	1113.441528	-620.171753	-150.458305	955.733246	271.668945	-82.087746	938.741913	-686.725464	-233.450043	882.742310	-43.288521	-245.258957	866.145935	-397.828064	-378.340271	920.651001	-165.807632	-378.498932	915.765991	-257.507202	-378.419601	918.208496	-211.657417	-360.046448	1149.211426	-232.843994	-99.035248	1079.549072	-227.188782	-260.204651	541.546814	-6.233907	-282.723755	423.827759	-47.256924	-302.465546	281.902679	22.305000	-311.965454	60.552383	-60.551281	-356.752136	52.083149	-109.053131	-179.208878	44.259624	-72.782127	-246.058334	517.807190	-419.517426	-262.258667	429.596497	-379.374390	-262.419891	316.338959	-429.118134	-293.935608	60.838074	-363.387726	-341.409943	49.789494	-319.223755	-158.055588	41.965775	-344.007568
178	1.77000000	-243.415787	1345.095947	-57.245293	-207.565216	1346.133423	-418.306305	-281.272278	1391.738892	-229.044525	-131.950821	1271.755127	-237.173035	-229.468491	1133.604370	148.358734	-195.094696	1113.428467	-620.133484	-150.568474	955.755676	271.728020	-81.915829	938.731750	-686.518158	-233.446869	882.735291	-43.271362	-245.152313	866.126831	-397.726074	-378.331940	920.637695	-165.777267	-378.495819	915.800781	-257.516205	-378.413879	918.219238	-211.646736	-360.100464	1149.223999	-232.814682	-99.026947	1079.551636	-227.143906	-260.062042	541.610168	-6.177380	-282.719818	423.852783	-47.262894	-302.481384	281.983032	22.240482	-311.934601	60.660046	-60.487461	-356.707184	52.081676	-109.015175	-179.183044	44.228104	-72.781685	-246.026764	517.823669	-419.519928	-262.273987	429.562500	-379.411163	-262.412384	316.496124	-429.034210	-294.054169	60.868191	-363.300293	-341.436676	49.814358	-319.194183	-158.027557	42.011036	-344.022491
179	1.78000000	-243.478683	1345.117065	-57.297115	-207.557678	1346.108398	-418.295654	-281.266449	1391.745728	-229.005692	-132.065231	1271.690063	-237.191483	-229.568893	1133.710571	148.411102	-195.057358	1113.366333	-620.157776	-150.624603	955.812988	271.783455	-81.907021	938.687378	-686.513153	-233.360794	882.731934	-43.226231	-245.056854	866.170959	-397.771881	-378.257050	920.642395	-165.814453	-378.446808	915.745850	-257.432404	-378.351929	918.194122	-211.623428	-360.033203	1149.233521	-232.824982	-99.015755	1079.557251	-227.189468	-259.946838	541.634033	-6.160295	-282.704407	423.843170	-47.279530	-302.364044	281.976562	22.249523	-311.879791	60.741314	-60.495483	-356.717682	52.130627	-108.993263	-179.193115	44.286789	-72.843201	-246.136566	517.897644	-419.514893	-262.176453	429.655548	-379.359924	-262.435120	316.561310	-429.085266	-293.969727	60.917194	-363.392944	-341.391052	49.784290	-319.235931	-158.065186	42.045418	-344.065643
180	1.79000000	-243.475739	1345.126221	-57.274918	-207.573166	1346.092163	-418.271423	-281.273804	1391.725952	-229.029648	-131.966232	1271.707153	-237.186447	-229.670883	1133.802368	148.522842	-195.093353	1113.377808	-620.126465	-150.723701	955.795746	271.822578	-81.904968	938.649200	-686.503815	-233.366653	882.761047	-43.206116	-245.036667	866.189148	-397.791565	-378.326630	920.700073	-165.781235	-378.431671	915.806396	-257.443237	-378.379150	918.253235	-211.612236	-360.176239	1149.287720	-232.819305	-99.153801	1079.412598	-227.062500	-259.891449	541.718445	-6.142491	-282.689972	423.858612	-47.267155	-302.459595	282.039764	22.270401	-312.116486	60.972740	-60.316963	-356.726807	52.080860	-109.053177	-179.188934	44.246170	-72.781494	-246.105728	517.909912	-419.458801	-262.160553	429.652771	-379.347717	-262.434113	316.554047	-429.142944	-294.021271	60.908100	-363.292938	-341.418518	49.885628	-319.191406	-158.048813	42.010685	-343.978271
